<?xml version="1.0" encoding="utf-8" ?>
<svg baseProfile="tiny" height="100%" version="1.2" width="100%" xmlns="http://www.w3.org/2000/svg" xmlns:ev="http://www.w3.org/2001/xml-events" xmlns:xlink="http://www.w3.org/1999/xlink"><defs /><path d="M 370.0,160.0 a 30.0,30.0 0 0,1 30.0,-30.0" fill="none" stroke="#fdce07" stroke-width="5" /><line stroke="#fdce07" stroke-width="5" x1="370.0" x2="370.0" y1="160.0" y2="160.0" /><path d="M 370.0,160.0 a 30.0,30.0 0 0,1 30.0,-30.0" fill="none" stroke="#fdce07" stroke-width="5" /><line stroke="#fdce07" stroke-width="5" x1="400.0" x2="400.0" y1="130.0" y2="130.0" /><line stroke="#fdce07" stroke-width="5" x1="400.0" x2="430.0" y1="130.0" y2="130.0" /><line stroke="#fdce07" stroke-width="5" x1="430.0" x2="430.0" y1="130.0" y2="100.0" /><path d="M 430.0,130.0 a 60.0,60.0 0 0,1 -60.0,-60.0" fill="none" stroke="#fdce07" stroke-width="5" /><line stroke="#fdce07" stroke-width="5" x1="430.0" x2="430.0" y1="130.0" y2="130.0" /><path d="M 430.0,130.0 a 60.0,60.0 0 0,1 -60.0,-60.0" fill="none" stroke="#fdce07" stroke-width="5" /><line stroke="#fdce07" stroke-width="5" x1="370.0" x2="370.0" y1="70.0" y2="70.0" /><line stroke="#fdce07" stroke-width="5" x1="370.0" x2="370.0" y1="160.0" y2="250.0" /><line stroke="#fdce07" stroke-width="5" x1="370.0" x2="430.0" y1="250.0" y2="250.0" /><path d="M 430.0,250.0 a 30.0,30.0 0 0,1 30.0,-30.0" fill="none" stroke="#fdce07" stroke-width="5" /><line stroke="#fdce07" stroke-width="5" x1="430.0" x2="430.0" y1="250.0" y2="250.0" /><path d="M 430.0,250.0 a 30.0,30.0 0 0,1 30.0,-30.0" fill="none" stroke="#fdce07" stroke-width="5" /><line stroke="#fdce07" stroke-width="5" x1="460.0" x2="460.0" y1="220.0" y2="220.0" /><line stroke="#fdce07" stroke-width="5" x1="430.0" x2="430.0" y1="250.0" y2="310.0" /><path d="M 10.0,310.0 a 90.0,90.0 0 0,1 90.0,-90.0" fill="none" stroke="#ef392f" stroke-width="5" /><line stroke="#ef392f" stroke-width="5" x1="10.0" x2="10.0" y1="310.0" y2="310.0" /><path d="M 10.0,310.0 a 90.0,90.0 0 0,1 90.0,-90.0" fill="none" stroke="#ef392f" stroke-width="5" /><line stroke="#ef392f" stroke-width="5" x1="100.0" x2="100.0" y1="220.0" y2="220.0" /><line stroke="#ef392f" stroke-width="5" x1="100.0" x2="190.0" y1="220.0" y2="220.0" /><path d="M 190.0,220.0 a 120.0,120.0 0 0,1 -120.0,-120.0" fill="none" stroke="#ef392f" stroke-width="5" /><line stroke="#ef392f" stroke-width="5" x1="190.0" x2="190.0" y1="220.0" y2="220.0" /><path d="M 190.0,220.0 a 120.0,120.0 0 0,1 -120.0,-120.0" fill="none" stroke="#ef392f" stroke-width="5" /><line stroke="#ef392f" stroke-width="5" x1="70.0" x2="70.0" y1="100.0" y2="100.0" /><path d="M 70.0,100.0 a 30.0,30.0 0 0,1 30.0,-30.0" fill="none" stroke="#ef392f" stroke-width="5" /><line stroke="#ef392f" stroke-width="5" x1="70.0" x2="70.0" y1="100.0" y2="100.0" /><path d="M 70.0,100.0 a 30.0,30.0 0 0,1 30.0,-30.0" fill="none" stroke="#ef392f" stroke-width="5" /><line stroke="#ef392f" stroke-width="5" x1="100.0" x2="130.0" y1="70.0" y2="70.0" /><line stroke="#ef392f" stroke-width="5" x1="130.0" x2="250.0" y1="70.0" y2="70.0" /><line stroke="#ef392f" stroke-width="5" x1="250.0" x2="250.0" y1="70.0" y2="40.0" /><path d="M 190.0,220.0 a 60.0,60.0 0 0,1 60.0,-60.0" fill="none" stroke="#ef392f" stroke-width="5" /><line stroke="#ef392f" stroke-width="5" x1="190.0" x2="190.0" y1="220.0" y2="220.0" /><path d="M 190.0,220.0 a 60.0,60.0 0 0,1 60.0,-60.0" fill="none" stroke="#ef392f" stroke-width="5" /><line stroke="#ef392f" stroke-width="5" x1="250.0" x2="280.0" y1="160.0" y2="160.0" /><line stroke="#0ab255" stroke-width="5" x1="190.0" x2="160.0" y1="340.0" y2="340.0" /><path d="M 190.0,340.0 a 30.0,30.0 0 0,0 30.0,30.0" fill="none" stroke="#0ab255" stroke-width="5" /><line stroke="#0ab255" stroke-width="5" x1="190.0" x2="190.0" y1="340.0" y2="340.0" /><path d="M 190.0,340.0 a 30.0,30.0 0 0,0 30.0,30.0" fill="none" stroke="#0ab255" stroke-width="5" /><line stroke="#0ab255" stroke-width="5" x1="220.0" x2="220.0" y1="370.0" y2="370.0" /><path d="M 190.0,340.0 a 30.0,30.0 0 0,1 30.0,-30.0" fill="none" stroke="#0ab255" stroke-width="5" /><line stroke="#0ab255" stroke-width="5" x1="190.0" x2="190.0" y1="340.0" y2="340.0" /><path d="M 190.0,340.0 a 30.0,30.0 0 0,1 30.0,-30.0" fill="none" stroke="#0ab255" stroke-width="5" /><line stroke="#0ab255" stroke-width="5" x1="220.0" x2="220.0" y1="310.0" y2="310.0" /><path d="M 190.0,340.0 a 60.0,60.0 0 0,0 -60.0,60.0" fill="none" stroke="#0ab255" stroke-width="5" /><line stroke="#0ab255" stroke-width="5" x1="190.0" x2="190.0" y1="340.0" y2="340.0" /><path d="M 190.0,340.0 a 60.0,60.0 0 0,0 -60.0,60.0" fill="none" stroke="#0ab255" stroke-width="5" /><line stroke="#0ab255" stroke-width="5" x1="130.0" x2="130.0" y1="400.0" y2="400.0" /><line stroke="#0ab255" stroke-width="5" x1="130.0" x2="130.0" y1="400.0" y2="250.0" /><line stroke="#0ab255" stroke-width="5" x1="190.0" x2="430.0" y1="340.0" y2="340.0" /><circle cx="370.0" cy="160.0" fill="white" r="5" stroke="black" stroke-width="2" /><circle cx="370.0" cy="70.0" fill="white" r="5" stroke="black" stroke-width="2" /><circle cx="430.0" cy="100.0" fill="white" r="5" stroke="black" stroke-width="2" /><circle cx="460.0" cy="220.0" fill="white" r="5" stroke="black" stroke-width="2" /><circle cx="370.0" cy="250.0" fill="white" r="5" stroke="black" stroke-width="2" /><circle cx="400.0" cy="130.0" fill="white" r="5" stroke="black" stroke-width="2" /><circle cx="430.0" cy="130.0" fill="white" r="5" stroke="black" stroke-width="2" /><circle cx="430.0" cy="250.0" fill="white" r="5" stroke="black" stroke-width="2" /><circle cx="430.0" cy="310.0" fill="white" r="5" stroke="black" stroke-width="2" /><circle cx="10.0" cy="310.0" fill="white" r="5" stroke="black" stroke-width="2" /><circle cx="130.0" cy="70.0" fill="white" r="5" stroke="black" stroke-width="2" /><circle cx="250.0" cy="70.0" fill="white" r="5" stroke="black" stroke-width="2" /><circle cx="190.0" cy="220.0" fill="white" r="5" stroke="black" stroke-width="2" /><circle cx="280.0" cy="160.0" fill="white" r="5" stroke="black" stroke-width="2" /><circle cx="100.0" cy="220.0" fill="white" r="5" stroke="black" stroke-width="2" /><circle cx="250.0" cy="40.0" fill="white" r="5" stroke="black" stroke-width="2" /><circle cx="70.0" cy="100.0" fill="white" r="5" stroke="black" stroke-width="2" /><circle cx="190.0" cy="340.0" fill="white" r="5" stroke="black" stroke-width="2" /><circle cx="220.0" cy="370.0" fill="white" r="5" stroke="black" stroke-width="2" /><circle cx="430.0" cy="340.0" fill="white" r="5" stroke="black" stroke-width="2" /><circle cx="130.0" cy="400.0" fill="white" r="5" stroke="black" stroke-width="2" /><circle cx="220.0" cy="310.0" fill="white" r="5" stroke="black" stroke-width="2" /><circle cx="160.0" cy="340.0" fill="white" r="5" stroke="black" stroke-width="2" /><circle cx="130.0" cy="250.0" fill="white" r="5" stroke="black" stroke-width="2" /></svg>